<?xml version="1.0" standalone="no"?><!DOCTYPE svg PUBLIC "-//W3C//DTD SVG 1.1//EN" "http://www.w3.org/Graphics/SVG/1.1/DTD/svg11.dtd"><svg t="1763205229870" class="icon" viewBox="0 0 1024 1024" version="1.1" xmlns="http://www.w3.org/2000/svg" p-id="7756" xmlns:xlink="http://www.w3.org/1999/xlink" width="200" height="200"><path d="M672.97393 864.932486H545.375065v-57.318336c0-17.41459-14.117504-31.532094-31.560747-31.532094-17.40845 0-31.526978 14.118527-31.526977 31.532094v57.318336H354.696662c-17.437103 0-31.533117 14.118527-31.533117 31.533117s14.096015 31.533117 31.533117 31.533118h318.277268c17.415613 0 31.532094-14.118527 31.532094-31.533118s-14.117504-31.533117-31.532094-31.533117zM953.955854 96.000256H70.050286c-34.837367 0-63.073398 28.250358-63.073398 63.060095v512.387832c0 34.830203 28.236031 63.067258 63.073398 63.067258h883.905568c34.830203 0 63.067258-28.237055 63.067258-63.067258V159.060351c0-34.808714-28.237055-63.060095-63.067258-63.060095zM70.050286 671.449207v-45.481777h606.840852c11.610409 0 21.022761-9.425655 21.022761-21.02276 0-11.610409-9.412352-21.021737-21.022761-21.021738H70.050286V159.060351h883.905568v424.861558H804.913651c-11.611432 0-21.022761 9.411328-21.022761 21.021737 0 11.597106 9.411328 21.022761 21.022761 21.022761h149.042203v45.481776H70.050286z" fill="#474747" p-id="7757"></path></svg>